# xmcd
#
# Track frame offsets:
#	150
#	8181
#	21232
#	31500
#	39662
#	51459
#	63602
#	74592
#	82085
#	92239
#	106007
#	115967
#	125101
#
# Disc length: 1814 seconds
#
# Revision: 1
# Processed by: cddbd v1.5.1PL0 Copyright (c) Steve Scherf et al.
# Submitted via: audiograbber 1.83.01
#
DISCID=b607140d
DTITLE=John Hore - Hit The Trail
DYEAR=1900
DGENRE=
TTITLE0=Hello Trouble
TTITLE1=Lonesome 77203
TTITLE2=John Mason Whitney III
TTITLE3=Proud Of You
TTITLE4=Love Is No Excuse
TTITLE5=I Can't Stop Loving You
TTITLE6=Mocking Bird Hill
TTITLE7=Tribute To An Unknown Love
TTITLE8=Love Knot In My Lariet
TTITLE9=Saginaw Michigan
TTITLE10=Snowflake
TTITLE11=Whips Are Crackin'
TTITLE12=Second Hand Rose
EXTD=
EXTT0=
EXTT1=
EXTT2=
EXTT3=
EXTT4=
EXTT5=
EXTT6=
EXTT7=
EXTT8=
EXTT9=
EXTT10=
EXTT11=
EXTT12=
PLAYORDER=
